<?xml version="1.0" encoding="UTF-8"?>
<svg width="256" height="256" viewBox="0 0 256 256" fill="none" xmlns="http://www.w3.org/2000/svg" role="img" aria-labelledby="title desc">
  <title id="title">Yesterday's Gone logo mark</title>
  <desc id="desc">Round badge with rising sun over hills, in brand brown color.</desc>
  <defs>
    <style>
      .bg { fill: #8E5B33; }
      .stroke { stroke: #F3E7D9; stroke-width: 10; stroke-linecap: round; stroke-linejoin: round; }
      .fill { fill: #F3E7D9; }
    </style>
  </defs>

  <!-- Circle background -->
  <circle cx="128" cy="128" r="122" class="bg"/>

  <!-- Horizon hills -->
  <path class="stroke" d="M24 148c28-10 48-10 76 2 28 12 48 12 76 0 28-12 48-12 76-2"/>

  <!-- Sun disk -->
  <circle cx="128" cy="124" r="26" class="fill"/>

  <!-- Sun rays -->
  <path class="stroke" d="M128 36v60"/>
  <path class="stroke" d="M96 40l20 56"/>
  <path class="stroke" d="M160 40l-20 56"/>
  <path class="stroke" d="M70 54l36 48"/>
  <path class="stroke" d="M186 54l-36 48"/>
  <path class="stroke" d="M52 76l52 36"/>
  <path class="stroke" d="M204 76l-52 36"/>

  <!-- Lower terrain lines -->
  <path class="stroke" d="M24 174c34-10 58-6 88 10 30 16 54 18 120 0"/>
</svg>
